# xmcd
#
# Track frame offsets:
#	182
#	13120
#	24225
#	37637
#	50070
#	61577
#	74102
#	88625
#	97712
#	115755
#	128152
#	140605
#	159632
#	169442
#	180950
#	197210
#	209190
#	220987
#	234517
#	251740
#
# Disc length: 3542 seconds
#
# Revision: 1
# Processed by: cddbd v1.4PL0 Copyright (c) Steve Scherf et al.
# Submitted via: EasyCDDAExtractor 4.6.9.1
#
DISCID=1d0dd414
DTITLE=Various Artist - 100 % Country
DYEAR=1994
DGENRE=Country
TTITLE0=Kenny Rogers - Ruby don`t take your love to town
TTITLE1=Roger Miller - King of the road
TTITLE2=Lynn Anderson - Rose garden
TTITLE3=Bellamy Brothers - Let your love flow
TTITLE4=Freddy Fender - Before the next teardrop falls
TTITLE5=Anne Murray - I just fall in love again
TTITLE6=Glenn Campbell - Rhinestone cowboy
TTITLE7=Frankie Laine - Rawhide
TTITLE8=Ricky Nelson - Garden party
TTITLE9=Johnny Cash - Folsom prison blues
TTITLE10=Dolly Parton - Making believe
TTITLE11=Ray Charles - I can`t stop loving you
TTITLE12=Ned Miller - From a jack to a king
TTITLE13=Patsy Cline - Walkin`after midnight
TTITLE14=Billy Jo Spears - Blanket on the ground
TTITLE15=Telly Savales - Some broken hearts never mend
TTITLE16=Everly Brothers - Let it be me
TTITLE17=B.J. Thomas - I just can`t help believing
TTITLE18=John Denver - Calypso
TTITLE19=Elvis Costello - Good year for the roses
EXTD=
EXTT0=
EXTT1=
EXTT2=
EXTT3=
EXTT4=
EXTT5=
EXTT6=
EXTT7=
EXTT8=
EXTT9=
EXTT10=
EXTT11=
EXTT12=
EXTT13=
EXTT14=
EXTT15=
EXTT16=
EXTT17=
EXTT18=
EXTT19=
PLAYORDER=
